<?xml version="1.0" encoding="UTF-8"?>
<svg id="uuid-ae72f726-1216-4479-a651-b54694cdd385" data-name="Layer 1" xmlns="http://www.w3.org/2000/svg" viewBox="0 0 1024 1024">
  <defs>
    <style>
      .uuid-fd17e38f-b55d-466f-ace1-4ec67eea3281 {
        fill: #fdfcfa;
      }

      .uuid-f61f11f1-30b3-4bc1-a097-4bf2fbae13db {
        fill: #0c3f5c;
      }

      .uuid-198c080e-2b2d-410f-afb2-165fe4de9834 {
        fill: #72c1c5;
      }
    </style>
  </defs>
  <g>
    <path id="uuid-1eea7f5e-c738-41e9-b7ce-36226dde9849" data-name="p1" class="uuid-f61f11f1-30b3-4bc1-a097-4bf2fbae13db" d="M48.8.72c6.55-.91,13.44-.58,20.07-.64,83.92-.03,167.85-.01,251.77-.01,10.2.13,19.43-.98,28.97,3.49,8.91,3.7,14.08,10.36,20.69,16.94,33.9,34.09,68.02,68.01,101.95,102.08,7.89,7.84,12.37,18.87,11.97,30-.23,34.73.13,69.45-.19,104.17-10.06,1.46-20.47.84-30.59.32-.26-31.62.09-63.23-.19-94.83-30.7.19-61.41-.01-92.11.1-7.57.1-14.92-1.39-21.17-5.85-7.18-5.22-12.11-13.6-12.14-22.59.06-32.35.07-64.74.01-97.08.36-3.78-1.65-7.34-5.79-7.1-86.72-.16-173.75-.03-260.49-.07-3.44,0-6.68,0-9.78,1.74-6.37,3.21-9.3,10.09-8.96,16.99,0,177.7-.03,352.06.03,529.74-.38,9.16,6.92,17.55,16,18.54,5.24.39,10.55.09,15.8.14,116.73-.03,233.44-.04,350.16,0,5.85-.23,13.18.98,18.52-1.68,6.48-3.21,10.26-9.82,10.11-17.02-.13-70.35.01-140.92-.06-211.31-.04-5.45-.03-10.92.23-16.38,7.32-.64,14.57-.51,21.91-.52,3.27.25,6.48-.51,8.49,2.72.42,5.18.06,10.43.13,15.63-.01,67.53-.01,135.04-.01,202.57-.12,7.64.72,14.5-1.27,21.91-3.33,13.89-13.51,25.84-26.81,31.12-9.81,4.11-20.82,2.71-31.24,2.89-118.65.03-237.3,0-355.95.01-8.58-.09-16.61.71-24.9-2.13-18.85-6.44-32.25-25.06-31.88-45.07-.14-177.92-.07-356.08-.04-534.01C11.51,24.18,27.86,4.5,48.8.72Z"/>
    <path id="uuid-4bd14180-d458-483c-a6c0-5ff5fc955c80" data-name="p2" class="uuid-f61f11f1-30b3-4bc1-a097-4bf2fbae13db" d="M619.62.06c77.15.09,154.4-.04,231.54.06,12.18-.07,23.56,4.66,32.21,13.2,37.84,37.88,75.73,75.73,113.56,113.63,5.59,5.54,10.53,11.2,13.05,18.82,2.47,6.63,1.95,12.98,2.01,19.9-.06,139.89.01,279.8-.04,419.69-.01,22.3-19.87,41.61-42.14,41.34-113.83.13-227.68.01-341.51.06-9.45.01-20.03.58-29.14-2.2-16.15-4.95-29.01-19.19-30.2-36.33.01-75.72.01-151.47,0-227.2-.1-3.4,3.43-6.54,5.31-9.19,8.19-10.56,17.15-20.73,24.37-31.99.94,12.31.32,24.42.45,36.82-.03,70.9.09,141.8-.04,212.7.23,6.89-1.35,15.82,3.56,21.34,3.86,4.89,9.48,6.34,15.5,6.15,115.77-.01,231.66.04,347.41-.04,7.74.39,14.87-5.32,15.97-13.01.77-6.66.23-13.51.3-20.23-.1-123.96-.03-247.91-.04-371.87-.09-10.17.36-20.21-.36-30.37-31.86-.04-63.74.01-95.6-.03-13.14.03-25.81-7.03-31.5-19.07-4.56-9.19-3.21-18.71-3.37-28.66-.04-27.48.16-54.96-.04-82.43-8.59-.35-17.19-.17-25.78-.16-72.36-.01-144.72.01-217.09-.03-4.37-.16-7.96,3.33-8.61,7.51-.72,6.64-.22,13.44-.27,20.13-.03,69.45-.03,138.91.01,208.36.06,7.89.14,15.76-.36,23.63-6.42-11.68-15.95-21.72-24.02-32.3-2.03-2.92-6.22-6.34-5.82-10.11.09-71.15.03-143.02.03-214.22.58-13.15,11.39-25.31,23.01-30.55,9.14-4.38,17.87-3.23,27.65-3.34ZM880.07,53.83c-.12,22.36.14,44.71-.1,67.07.16,3.37-.32,6.71,2.34,9.26,2.36,2.32,6.18,2.1,9.25,2.23,22.38-.04,44.77.1,67.14-.09-4.34-4.96-9.1-9.48-13.8-14.09-15.19-15.19-30.37-30.39-45.58-45.58-6.4-6.37-12.49-12.79-19.24-18.8Z"/>
    <path id="uuid-e688d919-1951-4b97-8d61-02e53a3d295e" data-name="p3" class="uuid-198c080e-2b2d-410f-afb2-165fe4de9834" d="M608,30.95c72.36.04,144.72.01,217.09.03,8.59-.01,17.19-.19,25.78.16.2,27.48,0,54.96.04,82.43.16,9.96-1.19,19.48,3.37,28.66,5.69,12.04,18.36,19.1,31.5,19.07,31.86.04,63.74-.01,95.6.03.72,10.16.27,20.2.36,30.37.01,123.96-.06,247.91.04,371.87-.07,6.71.46,13.57-.3,20.23-1.1,7.68-8.23,13.4-15.97,13.01-115.76.09-231.64.03-347.41.04-6.02.19-11.63-1.26-15.5-6.15-4.91-5.53-3.33-14.46-3.56-21.34.13-70.9.01-141.8.04-212.7-.13-12.4.49-24.51-.45-36.82,3.04-10.62,2.97-18.62.13-29.26.51-7.87.42-15.74.36-23.63-.04-69.45-.04-138.91-.01-208.36.06-6.68-.45-13.49.27-20.13.65-4.18,4.24-7.67,8.61-7.51ZM870.1,264.23c-.48,5.74-.33,11.43-.27,17.19.22,32.32-.16,64.65.14,96.96,8.74,1.5,17.52,1.22,26.31.23,2-13.92.16-28.27.95-42.32,10.53-.67,21.73,1.2,31.95-1.35.17-7.18.26-14.3-.13-21.49-10.17-2.45-21.27-.68-31.79-1.36-.38-8.33-.38-16.58,0-24.9,12.14.04,24.28-.01,36.42.03,2.72-.22,5.18.51,7.13-1.82,1.36-6.9.62-14.38.1-21.36-6.76-1.03-13.51-.85-20.33-.72-10.13.04-20.26.03-30.39-.01-6.89,0-13.31-.42-20.1.93ZM656.13,264.36c-.58,6.11-.25,12.36-.33,18.51.06,31.8-.12,63.62.09,95.41,8.83,1.72,17.49,1.16,26.39.48,2.03-11.46.48-23.5.97-35.1,8.42-.1,16.28.45,24.57-1.48,10.94-2.37,21.96-8.74,27.91-18.45,5.77-9.26,6.64-20.82,4.57-31.34-2.58-11.81-11.59-20.79-22.69-25.03-11.37-4.49-23.77-3.69-35.77-3.82-8.45.12-17.44-.64-25.71.82ZM755.91,264.28c-.32,3.76-.32,7.54-.29,11.33.06,34.23-.06,68.48.06,102.73,8.81,1.65,17.1.69,26,.88,14.14-.01,27.3.17,40.73-4.99,11.92-4.41,22.15-12.82,27.71-24.37,5.64-11.49,6.48-24.12,5.53-36.69-1.04-14.3-8.07-28.24-19.48-37.06-8.97-6.83-20.34-10.56-31.44-11.85-9.49-.94-19.3-.69-28.84-.8-6.76-.03-13.28-.3-19.98.81Z"/>
    <path id="uuid-2e2125de-6467-40c2-b05d-a2aa3d776154" data-name="p4" class="uuid-fd17e38f-b55d-466f-ace1-4ec67eea3281" d="M356.81,50.92c6.99,6.66,13.59,13.72,20.45,20.5,19.88,20.39,40.28,40.28,59.92,60.92-11.81.77-23.69.17-35.51.33-14.34-.22-28.78.51-43.09-.48-.94-2.75-1.82-5.44-1.74-8.39-.01-24.27-.03-48.62-.03-72.88Z"/>
    <path id="uuid-2c0057f7-0086-4635-977a-5990f2de1e43" data-name="p5" class="uuid-198c080e-2b2d-410f-afb2-165fe4de9834" d="M880.07,53.83c6.76,6,12.85,12.43,19.24,18.8,15.21,15.19,30.39,30.39,45.58,45.58,4.7,4.62,9.46,9.13,13.8,14.09-22.37.19-44.75.04-67.14.09-3.07-.13-6.89.09-9.25-2.23-2.66-2.55-2.18-5.89-2.34-9.26.25-22.36-.01-44.71.1-67.07Z"/>
    <path id="uuid-193cd949-61f0-427b-a3c8-dd2832a39f90" data-name="p6" class="uuid-f61f11f1-30b3-4bc1-a097-4bf2fbae13db" d="M144.76,204.97c6.51-.69,13.24-.41,19.78-.22,2.82.12,4.99,1.9,5.73,4.6.85,6.22-.65,12.08-1.46,18.2-1.42,9.98-3.07,19.94-4.47,29.92,12.13.1,24.25.22,36.36,0,2.71-14.76,4.7-29.62,6.95-44.44.61-3.75,2.04-7.7,6.31-8.25,6.54-.32,13.3-.45,19.82.1,4.11.94,5.14,5.99,4.51,9.59-2.21,14.37-4.38,28.77-6.87,43.1,9.1.17,18.25-.35,27.32.13,3.75.04,7.19,2.4,7.34,6.37.42,5.61.42,11.72.01,17.33-.14,4.01-3.26,7.44-7.41,7.25-10.61.13-21.23-.12-31.83.01-2.26,12.92-4.3,25.96-6.06,38.95,11.66.25,23.35-.09,35.02.12,4.21-.07,8.52,2.76,8.64,7.25.16,5.67.19,11.52-.04,17.19-.41,4.6-4.31,7.08-8.68,7.15-13.36.22-26.74-.16-40.11.09-1.81,14.53-4.23,28.98-6.19,43.5-.38,3.49-2.23,6.63-5.87,7.29-5.93.52-12.57.58-18.49-.06-4.46-.93-6.53-5.7-5.83-9.93,1.98-13.6,4.17-27.19,5.92-40.82-12.49-.07-24.99-.19-37.48.06-1.58,13.17-4.24,26.18-5.95,39.33-.71,4.44-.87,8.51-5.01,11.2-6.02.94-12.36.61-18.45.39-3.63.12-6.77-2.59-7.18-6.19-.42-5.48,1.17-11.27,1.9-16.73,1.35-9.33,2.98-18.65,4.07-28.03-7.25-.23-14.51.2-21.75-.23-3.81-.14-7.21-3.07-7.32-6.96-.22-5.67-.2-11.59-.01-17.26.09-4.54,4.4-7.26,8.62-7.22,8.71-.22,17.44.07,26.15-.09,2.24-12.92,3.95-25.96,5.92-38.94-10.68-.26-21.36.1-32.02-.1-3.86.06-7.31-3.39-7.23-7.25-.09-6.12-.35-12.36.22-18.45.91-3.66,3.85-5.08,7.36-5.28,12.28-.45,24.63.38,36.91-.36,1.55-13.41,3.89-26.73,5.59-40.12.82-4.66.56-9.64,5.3-12.21ZM153.34,327.78c12.28-.16,24.57.06,36.84-.12,1.55-13.02,4.05-25.91,5.51-38.95-11.73.04-23.53-.26-35.26.12-3.26,12.7-4.37,26.09-7.09,38.95Z"/>
    <path id="uuid-9ecbad37-595d-4577-b7c7-c818f9147a09" data-name="p7" class="uuid-f61f11f1-30b3-4bc1-a097-4bf2fbae13db" d="M521.68,227.17c5.13-.3,8.79,2.48,11.88,6.23,15.78,18.9,31.77,37.59,47.61,56.42,3.26,3.98,7.73,8.2,8.48,13.48.67,4.7-1.39,8.56-4.3,12.04-16.16,18.96-32.18,38.08-48.15,57.21-2.98,3.44-6.23,8.48-10.61,10.15-6.58,2.3-14.48-.23-17.32-6.87-2.16-5.32-1.03-11.28,2.77-15.54,11.42-14.09,23.05-28.03,34.48-42.11-50.13-.08-40.33.01-90.48-.03-5.45-.1-10.53-2.38-12.42-7.84-1.53-5.52-1.46-12.32,3.29-16.32,4.68-4.19,11.04-3.2,16.82-3.31,47.66.09,35.08.09,82.76,0-11.42-13.3-22.48-26.89-33.92-40.19-2.92-3.35-4.8-7.07-4.32-11.65.45-6.76,6.74-12,13.43-11.67Z"/>
    <path id="uuid-50553d16-2cec-4a80-b8ad-417d505063e5" data-name="p8" class="uuid-f61f11f1-30b3-4bc1-a097-4bf2fbae13db" d="M890.2,263.3c10.13.04,20.26.06,30.39.01,6.82-.13,13.57-.3,20.33.72.52,6.97,1.26,14.46-.1,21.36-1.95,2.33-4.41,1.61-7.13,1.82-12.14-.04-24.28.01-36.42-.03-.38,8.32-.38,16.57,0,24.9,10.52.68,21.62-1.09,31.79,1.36.39,7.19.3,14.31.13,21.49-10.22,2.55-21.41.68-31.95,1.35-.8,14.05,1.04,28.4-.95,42.32-8.78.98-17.57,1.27-26.31-.23-.3-32.31.07-64.64-.14-96.96-.06-5.76-.2-11.45.27-17.19,6.79-1.35,13.21-.93,20.1-.93Z"/>
    <path id="uuid-8c1a670d-1144-42d9-a5e5-4c401724cd62" data-name="p9" class="uuid-f61f11f1-30b3-4bc1-a097-4bf2fbae13db" d="M681.84,263.53c12,.13,24.4-.67,35.77,3.82,11.1,4.24,20.11,13.23,22.69,25.03,2.07,10.52,1.2,22.08-4.57,31.34-5.95,9.71-16.97,16.08-27.91,18.45-8.29,1.92-16.15,1.37-24.57,1.48-.49,11.6,1.06,23.64-.97,35.1-8.9.68-17.57,1.24-26.39-.48-.2-31.79-.03-63.61-.09-95.41.09-6.15-.25-12.4.33-18.51,8.28-1.46,17.26-.71,25.71-.82ZM683.27,285.74c-.03,11.6-.07,23.21-.01,34.8,7.6.01,16.48,1.16,23.28-2.82,10.4-5.32,10.85-24.12-.03-29.16-7.22-3.59-15.45-2.75-23.24-2.82Z"/>
    <path id="uuid-1178a121-2f47-402c-b9f7-ac632ff5a29a" data-name="p10" class="uuid-f61f11f1-30b3-4bc1-a097-4bf2fbae13db" d="M775.89,263.47c9.54.1,19.35-.14,28.84.8,11.1,1.29,22.47,5.02,31.44,11.85,11.4,8.81,18.43,22.76,19.48,37.06.96,12.57.12,25.21-5.53,36.69-5.56,11.55-15.79,19.95-27.71,24.37-13.43,5.17-26.59,4.98-40.73,4.99-8.9-.19-17.19.77-26-.88-.12-34.25,0-68.5-.06-102.73-.03-3.79-.03-7.57.29-11.33,6.7-1.11,13.23-.84,19.98-.81ZM783.03,287.19c-.13,22.8-.17,45.65-.01,68.46,7.78.35,16.44.77,24.03-1.22,6.9-1.84,13.02-5.99,16.54-12.3,4.51-8.09,4.96-18.36,4.11-27.39-1.1-9.25-4.85-17.87-13.12-22.79-10.23-6.14-20.23-4.51-31.54-4.76Z"/>
    <path id="uuid-3074e6cb-cdf2-47d4-86af-aa662bc8bebd" data-name="p11" class="uuid-198c080e-2b2d-410f-afb2-165fe4de9834" d="M683.27,285.74c7.78.07,16.02-.77,23.24,2.82,10.88,5.04,10.43,23.83.03,29.16-6.8,3.98-15.68,2.84-23.28,2.82-.06-11.59-.01-23.19.01-34.8Z"/>
    <path id="uuid-0b075422-7307-42b7-9f0a-c2a59d039a61" data-name="p12" class="uuid-198c080e-2b2d-410f-afb2-165fe4de9834" d="M783.03,287.19c11.32.25,21.31-1.37,31.54,4.76,8.28,4.92,12.02,13.54,13.12,22.79.85,9.03.41,19.3-4.11,27.39-3.52,6.31-9.64,10.46-16.54,12.3-7.6,1.98-16.25,1.56-24.03,1.22-.16-22.8-.12-45.65.01-68.46Z"/>
    <path id="uuid-ac721d8d-ed6c-471e-8d59-8d0bb5d60719" data-name="p13" class="uuid-fd17e38f-b55d-466f-ace1-4ec67eea3281" d="M160.43,288.82c11.73-.38,23.53-.07,35.26-.12-1.46,13.04-3.96,25.93-5.51,38.95-12.27.17-24.55-.04-36.84.12,2.72-12.86,3.83-26.25,7.09-38.95Z"/>
    <path id="uuid-bfa9ae1e-9bd5-4878-8e27-d1068ef4ff09" data-name="p14" class="uuid-f61f11f1-30b3-4bc1-a097-4bf2fbae13db" d="M236.92,432.38c6.15.16,12.36-.26,18.48.23,3.44.04,4.91,3.68,6.54,6.12,9.54,16.74,19.45,33.27,29.11,49.95,9.25-16.21,18.88-32.18,28.04-48.44,1.37-2.32,2.82-4.95,4.85-6.76,2.82-1.49,6.79-.97,9.9-1.1,6.54.2,13.18-.39,19.68.26,3.44.62,4.28,3.23,4.3,6.38.01,35.18-.06,70.58.03,105.74-.09,4.09.43,8.68-.8,12.62-2.03,2.72-5.63,1.77-8.59,2.07-6.22-.17-11.66.93-17.45-1.71-.2-27.64.22-55.3-.16-82.94-9.68,16.12-18.64,32.67-28.16,48.88-4.25,8.29-18.85,8.67-23.04.13-9.36-15.97-18.22-32.31-28.04-48-.36,25.89-.12,51.79-.13,77.66.35,2.79-1.58,5.66-4.49,5.77-6,.32-12.59.32-18.59-.01-2.89-.1-4.31-3.28-4.17-5.85-.04-37.49.01-75.43-.03-112.89.06-2.45.14-4.77,1.36-6.97,3.33-1.53,7.74-1.06,11.36-1.14Z"/>
  </g>
  <g>
    <path class="uuid-f61f11f1-30b3-4bc1-a097-4bf2fbae13db" d="M74.29,920.69c-5.34,0-8.14-2.8-8.9-6.87l-15-90.77h-2.03l2.29,35.85v87.72c0,5.59-3.31,8.9-8.9,8.9h-10.68c-5.59,0-8.9-3.31-8.9-8.9v-166.54c0-5.59,3.31-8.64,8.9-8.64h24.92c5.59,0,8.14,2.8,9.15,8.39l10.42,54.67,6.1,43.48h2.29l5.85-43.48,10.68-54.67c.76-5.59,3.56-8.39,9.15-8.39h24.92c5.34,0,8.9,3.05,8.9,8.64v166.54c0,5.59-3.31,8.9-8.9,8.9h-10.68c-5.59,0-8.9-3.31-8.9-8.9v-87.72l2.29-35.85h-2.03l-15.26,90.77c-.51,4.07-3.31,6.87-8.65,6.87h-17.04Z"/>
    <path class="uuid-f61f11f1-30b3-4bc1-a097-4bf2fbae13db" d="M246.94,884.07c0,6.36-3.81,10.17-10.17,10.17h-38.65v28.99c0,7.88,3.31,11.19,9.92,11.19s10.17-3.3,10.17-11.19v-5.34c0-5.59,3.05-8.64,8.65-8.64h11.44c5.59,0,8.65,3.05,8.65,8.64v6.1c0,22.38-12.46,32.8-38.9,32.8s-38.9-10.68-38.9-33.05v-80.6c0-22.12,12.46-32.8,38.9-32.8s38.9,10.68,38.9,32.8v40.94ZM198.12,872.63h20.09v-28.73c0-8.14-3.31-11.19-10.17-11.19s-9.92,3.05-9.92,11.19v28.73Z"/>
    <path class="uuid-f61f11f1-30b3-4bc1-a097-4bf2fbae13db" d="M350.42,869.33c0,5.34-3.05,8.64-8.65,8.64h-11.44c-5.59,0-8.65-3.3-8.65-8.64v-23.65c0-7.88-3.05-11.19-9.92-11.19s-10.17,3.56-10.17,11.7v100.69c0,5.34-3.31,8.64-8.9,8.64h-11.19c-5.59,0-8.9-3.31-8.9-8.64v-126.62c0-5.59,3.31-8.64,8.9-8.64h11.19c5.59,0,8.9,3.05,8.9,8.64v1.27c7.12-7.12,17.04-11.19,25.93-11.19,12.46,0,22.88,7.88,22.88,26.7v32.29Z"/>
    <path class="uuid-f61f11f1-30b3-4bc1-a097-4bf2fbae13db" d="M448.82,972.81c0,22.63-12.46,33.56-39.66,33.56h-16.02c-5.59,0-8.64-3.05-8.64-8.64v-4.83c0-5.59,3.05-8.9,8.64-8.9h16.02c7.88,0,10.93-4.07,10.93-11.95v-26.44c-7.37,7.12-17.29,11.19-26.19,11.19-12.46,0-22.88-7.88-22.88-26.7v-93.06c0-18.82,10.42-26.7,22.88-26.7,8.9,0,18.82,4.07,26.19,11.19v-1.27c0-5.59,3.05-8.64,8.65-8.64h11.44c5.59,0,8.65,3.05,8.65,8.64v152.55ZM400,921.2c0,8.14,2.8,11.19,9.66,11.19s10.42-3.3,10.42-11.44v-74.75c0-8.14-3.56-11.7-10.42-11.7s-9.66,3.31-9.66,11.19v75.51Z"/>
    <path class="uuid-f61f11f1-30b3-4bc1-a097-4bf2fbae13db" d="M552.3,884.07c0,6.36-3.81,10.17-10.17,10.17h-38.65v28.99c0,7.88,3.31,11.19,9.92,11.19s10.17-3.3,10.17-11.19v-5.34c0-5.59,3.05-8.64,8.64-8.64h11.44c5.59,0,8.64,3.05,8.64,8.64v6.1c0,22.38-12.46,32.8-38.9,32.8s-38.9-10.68-38.9-33.05v-80.6c0-22.12,12.46-32.8,38.9-32.8s38.9,10.68,38.9,32.8v40.94ZM503.48,872.63h20.09v-28.73c0-8.14-3.31-11.19-10.17-11.19s-9.92,3.05-9.92,11.19v28.73Z"/>
    <path class="uuid-f61f11f1-30b3-4bc1-a097-4bf2fbae13db" d="M630.1,920.69c-5.34,0-8.14-2.8-8.9-6.87l-15-90.77h-2.03l2.29,35.85v87.72c0,5.59-3.31,8.9-8.9,8.9h-10.68c-5.59,0-8.9-3.31-8.9-8.9v-166.54c0-5.59,3.31-8.64,8.9-8.64h24.92c5.59,0,8.14,2.8,9.15,8.39l10.42,54.67,6.1,43.48h2.29l5.85-43.48,10.68-54.67c.76-5.59,3.56-8.39,9.15-8.39h24.92c5.34,0,8.9,3.05,8.9,8.64v166.54c0,5.59-3.31,8.9-8.9,8.9h-10.68c-5.59,0-8.9-3.31-8.9-8.9v-87.72l2.29-35.85h-2.03l-15.26,90.77c-.51,4.07-3.3,6.87-8.64,6.87h-17.04Z"/>
    <path class="uuid-f61f11f1-30b3-4bc1-a097-4bf2fbae13db" d="M774.01,871.36v-27.46c0-8.14-3.31-11.19-10.17-11.19s-9.92,3.05-9.92,11.19v5.85c0,5.59-3.3,8.65-8.9,8.65h-11.19c-5.59,0-8.9-3.05-8.9-8.65v-6.61c0-22.12,12.46-32.8,38.9-32.8s38.9,10.68,38.9,32.8v103.74c0,5.34-3.05,8.64-8.64,8.64h-11.44c-5.59,0-8.64-3.31-8.64-8.64v-1.27c-7.37,7.12-17.29,11.19-26.19,11.19-12.46,0-22.88-7.88-22.88-26.7v-25.93c0-22.12,12.46-32.8,38.9-32.8h10.17ZM763.84,892.97c-6.61,0-9.92,3.3-9.92,11.19v17.04c0,8.14,2.8,11.19,9.66,11.19s10.42-3.3,10.42-11.44v-27.97h-10.17Z"/>
    <path class="uuid-f61f11f1-30b3-4bc1-a097-4bf2fbae13db" d="M906.22,869.33c0,5.34-3.05,8.64-8.64,8.64h-11.44c-5.59,0-8.64-3.3-8.64-8.64v-23.65c0-7.88-3.05-11.19-9.92-11.19s-10.17,3.56-10.17,11.7v100.69c0,5.34-3.3,8.64-8.9,8.64h-11.19c-5.59,0-8.9-3.31-8.9-8.64v-126.62c0-5.59,3.31-8.64,8.9-8.64h11.19c5.59,0,8.9,3.05,8.9,8.64v1.27c7.12-7.12,17.04-11.19,25.93-11.19,12.46,0,22.88,7.88,22.88,26.7v32.29Z"/>
    <path class="uuid-f61f11f1-30b3-4bc1-a097-4bf2fbae13db" d="M955.81,870.6h2.03l24.41-54.41c1.02-2.54,3.56-4.58,7.88-4.58h11.95c8.64,0,9.66,8.14,7.63,13.22l-26.95,58.48,26.95,58.99c2.03,5.08,1.02,13.22-7.63,13.22h-11.95c-4.32,0-6.87-2.03-7.88-4.83l-24.41-54.41h-2.03v50.34c0,5.59-3.3,8.9-8.9,8.9h-11.19c-5.59,0-8.9-3.31-8.9-8.9v-185.86c0-5.59,3.31-8.65,8.9-8.65h11.19c5.59,0,8.9,3.05,8.9,8.65v109.84Z"/>
  </g>
</svg>