<?xml version="1.0" encoding="UTF-8"?>
<svg id="uuid-c13af9b0-9d97-4ab8-bc0c-78fbddf2b51a" data-name="Layer 1" xmlns="http://www.w3.org/2000/svg" xmlns:xlink="http://www.w3.org/1999/xlink" viewBox="0 0 850 850">
  <defs>
    <linearGradient id="uuid-79558852-6b93-4651-9fe7-2d23dcbcaa5e" x1="803.09" y1="212.02" x2="395.89" y2="223.91" gradientUnits="userSpaceOnUse">
      <stop offset="0" stop-color="#f44458"/>
      <stop offset="1" stop-color="#f56452"/>
    </linearGradient>
    <linearGradient id="uuid-2151795c-bee9-498a-bfa7-79e0d5044a56" x1="372.98" y1="147" x2="-33" y2="346.18" gradientUnits="userSpaceOnUse">
      <stop offset="0" stop-color="#f78b49"/>
      <stop offset="1" stop-color="#fcc13e"/>
    </linearGradient>
    <linearGradient id="uuid-30030cd8-822a-4ba3-afba-10265bc903e1" x1="572.97" y1="330.73" x2="668.48" y2="330.73" xlink:href="#uuid-79558852-6b93-4651-9fe7-2d23dcbcaa5e"/>
    <linearGradient id="uuid-4f0d7058-352a-4c30-94fa-1ecb25b8a936" x1="880.2" y1="489.84" x2="485.95" y2="726.84" gradientUnits="userSpaceOnUse">
      <stop offset="0" stop-color="#fcc23c"/>
      <stop offset="1" stop-color="#f28f47"/>
    </linearGradient>
    <linearGradient id="uuid-773fa282-8176-4c7b-b2c0-e3a979399264" x1="411.18" y1="671.18" x2="547.63" y2="671.18" xlink:href="#uuid-4f0d7058-352a-4c30-94fa-1ecb25b8a936"/>
    <linearGradient id="uuid-7438f36d-f4e5-4c7b-8dd5-6140f1253a80" x1="434.49" y1="688.74" x2="621.7" y2="688.74" xlink:href="#uuid-4f0d7058-352a-4c30-94fa-1ecb25b8a936"/>
    <linearGradient id="uuid-57ddbedb-ebcb-43cb-93dc-7ba5c0cde9e0" x1="401.43" y1="656.66" x2="532.03" y2="656.66" xlink:href="#uuid-4f0d7058-352a-4c30-94fa-1ecb25b8a936"/>
    <linearGradient id="uuid-8b1f8c9f-aa5b-4d64-bd0e-4e2e8a058d8c" x1="251.35" y1="675.09" x2="401.44" y2="675.09" gradientUnits="userSpaceOnUse">
      <stop offset="0" stop-color="#2f75bd"/>
      <stop offset="1" stop-color="#41b1c8"/>
    </linearGradient>
    <linearGradient id="uuid-0f7f9b5a-0d41-4d72-bb5a-8b560ec2afb7" x1="372.92" y1="611.06" x2="105.75" y2="714.59" xlink:href="#uuid-8b1f8c9f-aa5b-4d64-bd0e-4e2e8a058d8c"/>
    <linearGradient id="uuid-c2df6c7b-7aed-41a9-ae3e-5ce4eaf95361" x1="200.86" y1="411.57" x2="256.62" y2="709.78" xlink:href="#uuid-8b1f8c9f-aa5b-4d64-bd0e-4e2e8a058d8c"/>
    <linearGradient id="uuid-e11fd8b4-d1d2-4889-803b-93df4621f8c9" x1="202.62" y1="472.87" x2="220.16" y2="472.87" xlink:href="#uuid-8b1f8c9f-aa5b-4d64-bd0e-4e2e8a058d8c"/>
    <linearGradient id="uuid-a720f517-33b0-4e68-809c-751afe0c0097" x1="199.75" y1="512.34" x2="217.33" y2="512.34" xlink:href="#uuid-8b1f8c9f-aa5b-4d64-bd0e-4e2e8a058d8c"/>
    <linearGradient id="uuid-8c4f9956-eadf-4d3f-a09d-76e6eb296a7d" x1="194.83" y1="551.81" x2="216.56" y2="551.81" xlink:href="#uuid-8b1f8c9f-aa5b-4d64-bd0e-4e2e8a058d8c"/>
  </defs>
  <g id="uuid-a69c2383-0e53-4e3f-8a40-a8e90512b5d9" data-name="Generative Object">
    <g>
      <path d="M668.48,438.27c-1.78-5.02-13.32-2.31-13.64-2.92-1.76-3.37,2.41-64.98,1.95-76.02-2.89-68.91,2.92-94.92-47.75-139.37-9.65-8.46-22.8-27.92-36.06-23.39-17.61-18.52-36.12-36.88-54.58-54.58-25.64-1.78-52.32-3.47-77.97-3.9L350.76,8.47c216.08-43.27,431.93,101.88,487.29,311.87-55.44,40.85-112.89,78.89-169.58,117.93Z" style="fill: url(#uuid-79558852-6b93-4651-9fe7-2d23dcbcaa5e);"/>
      <path d="M405.34,138.09c-25.7-.23-152.89-.29-166.65,7.8-1.27.75-9.95,9.43-10.72,10.72-9.02,15.08-7.39,158.04-7.8,188.1-3.89,7.54-14.61,14.49-21.44,19.49-43.9,32.11-138.28,105.52-182.25,126.7-2.8,1.35-8.4,6.09-10.72,2.92C-30.58,277.89,108.97,71.16,316.65,13.35l88.69,124.75Z" style="fill: url(#uuid-2151795c-bee9-498a-bfa7-79e0d5044a56);"/>
      <path d="M668.48,438.27c-2.34,1.61-3.67,3.74-3.9,3.9-11.91,8.19-24.76,15.73-37.03,23.39.51-68.14.69-136.52,0-204.66-2.06-7.19-46.13-55.44-54.58-64.32,13.26-4.53,26.41,14.93,36.06,23.39,50.67,44.44,44.87,70.46,47.75,139.37.46,11.04-3.71,72.65-1.95,76.02.32.62,11.87-2.1,13.64,2.92Z" style="fill: url(#uuid-30030cd8-822a-4ba3-afba-10265bc903e1);"/>
    </g>
    <g>
      <path d="M467.71,744.29l-7.8-16.57c.21-5.46,18.39-7.46,20.47-8.77,2.24-1.42,9.7-13.02,11.7-13.64.86-.27,14.72,4.43,17.54,3.9,4.17-.79,29.66-8.15,33.14-9.75,2.16-.99,25.68-22.69,26.31-24.36.68-1.78-2.13-22.16.97-24.36,3.48-2.47,25.67,2.35,28.26,1.95-3.27-.05-2.2,7.88-.97,7.8,1.88-1.92.7-5.22.97-7.8,8.52-1.32,19.71-11.48,23.39-19.49,11.42-24.84,5.39-98.56,5.85-130.59,11.9-6.49,22.14-15.65,33.14-23.39,60.16-42.38,120.75-84.84,183.22-123.77,37.61,213.81-102.86,422.89-308.94,480.47-5.67-.44-59.3-80.55-67.25-91.61Z" style="fill: url(#uuid-4f0d7058-352a-4c30-94fa-1ecb25b8a936);"/>
      <path d="M547.63,646.83l-20.47,25.34c-33.83,1.55-63.05,5.84-92.59,23.39-7.41-10.5-15.95-20.54-23.39-31.19,7.85,2.8,17.55,1.82,26.31,1.95.72.01,3.12-3.87,3.9-3.9,1.42-.06.54,3.97,1.95,3.9,4.19-.23,18.15.45,19.49,0,2.14-.72,7.74-9.15,9.75-9.75,5.47-1.62,17.17,1.35,23.39,0,1.23-.27,4.74-5.68,5.85-5.85,8.34-1.23,24.75,4.05,30.21-3.9,5.17-.09,10.42.13,15.59,0Z" style="fill: url(#uuid-773fa282-8176-4c7b-b2c0-e3a979399264);"/>
      <path d="M598.31,652.68c-2.59.4-24.79-4.42-28.26-1.95-3.1,2.2-.3,22.58-.97,24.36-.64,1.68-24.16,23.37-26.31,24.36-3.47,1.6-28.97,8.96-33.14,9.75-2.83.53-16.69-4.17-17.54-3.9-2,.63-9.45,12.23-11.7,13.64-2.07,1.31-20.26,3.31-20.47,8.77l7.8,16.57c-11.14-15.5-22.13-31.19-33.14-46.78-.31-.43.31-1.52,0-1.95,29.53-17.55,58.75-21.84,92.59-23.39l20.47-25.34c25.54-.65,56.34,7.13,74.07-13.64-3.68,8.01-14.87,18.18-23.39,19.49Z" style="fill: url(#uuid-7438f36d-f4e5-4c7b-8dd5-6140f1253a80);"/>
      <path d="M532.03,646.83c-5.46,7.95-21.87,2.67-30.21,3.9-1.11.16-4.62,5.58-5.85,5.85-6.22,1.35-17.92-1.62-23.39,0-2.01.59-7.6,9.03-9.75,9.75-1.34.45-15.3-.23-19.49,0-1.41.08-.53-3.96-1.95-3.9-.77.03-3.18,3.91-3.9,3.9-8.76-.13-18.47.85-26.31-1.95-3.66-5.24-9.98-10.51-9.75-17.54,43.43.27,87.18.74,130.59,0Z" style="fill: url(#uuid-57ddbedb-ebcb-43cb-93dc-7ba5c0cde9e0);"/>
      <path d="M364.4,648.78c10.63,14.98,20.25,31.61,33.14,44.83l3.9,9.75c-3.96-4.77-22.51-30.49-24.36-31.19-10.03-3.75-20.29,3.97-21.44,3.9-.83-.05-15.09-5.19-15.59-5.85-.66-.85-.05-15.2-5.85-19.49l-82.84-3.9c27.04,4.04,82.64,1.63,113.05,1.95Z" style="fill: url(#uuid-8b1f8c9f-aa5b-4d64-bd0e-4e2e8a058d8c);"/>
      <path d="M220.16,547.42c.07,25.9-1.5,52.23,1.95,77.97-5.16-8.56-4.5-7.59-5.85-17.54-.54-4.02.88-19.21,0-20.47-1.79-2.54-9.91.59-11.7-1.95-2.5-3.55.11-74.41,0-86.74-.07-7.77.05-15.62,0-23.39,8.15,9.76,4.04,20.77,5.85,32.16.84,5.29,5.77,11.05,5.85,11.7,1.54,13.37-1.13,29.19,0,42.88l3.9-14.62Z" style="fill: #3187aa;"/>
      <g>
        <path d="M204.57,475.3c.05,7.77-.07,15.62,0,23.39l-4.87-9.75-4.87,4.87,3.9,120.85,17.54-6.82c1.34,9.96.69,8.98,5.85,17.54,6.96,11.56,15.35,19.36,29.24,21.44l82.84,3.9c5.8,4.3,5.19,18.64,5.85,19.49.51.66,14.76,5.8,15.59,5.85,1.15.07,11.41-7.65,21.44-3.9,1.85.69,20.4,26.41,24.36,31.19,36.06,43.44,66.17,92.45,97.46,139.37-54.52,9.72-108.72,8.21-160.24-2.84s-100.35-31.63-144.12-60.05c-43.77-28.42-82.48-64.67-113.76-107.06s-55.12-90.91-69.16-143.87c62.3-44.9,126.44-87.17,189.07-131.57.43-.31,1.52.31,1.95,0l1.95,77.97Z" style="fill: url(#uuid-0f7f9b5a-0d41-4d72-bb5a-8b560ec2afb7);"/>
        <path d="M109.6,461.34c31.89-23.01,65.44-43.66,97.71-67.49,1.49-1.1,3.58,25.05,5.03,23.9,0,.79.27,13.19.27,13.98,0,4.68-.02,9.39-.02,14.07,0,.37-2.44-4.14-2.44-3.77,0,.23-2.44,2.9-2.44,3.14-.02,4.09,1.91,68.6,1.9,72.69,0,.64,8.73-2.14,8.77-1.5.33,5.64.4,5.73,2.92,10.68,3.57,7.01,7.67,12.23,14.61,14.54,0,2.8,41.42,7.56,41.42,10.36,2.9,2.85,2.6,10.73,2.92,11.86.26.89,7.38,4.03,7.8,4.62.57.8,5.71-2.3,10.72.33.93,3.4,9.87,19.45,12.2,24.76,12.75,29,24.61,59.32,39.81,87.8,2.57,4.82,4.04,16.44,7.06,20.97-27.66.06-54.22-6.02-79.89-16.6-10.86-4.49-21.22-10.46-32.13-15.78s-23.87-12.62-34.45-21.03c-2.99-2.38-5.97-4.76-8.84-7.23-22.2-19.23-40.48-42.08-59.6-67.71-14.73-19.74-26.97-81.29-34.12-105.77.25-2.24.52-4.51.8-6.8Z" style="fill: url(#uuid-c2df6c7b-7aed-41a9-ae3e-5ce4eaf95361);"/>
        <path d="M220.16,547.42l-3.9,14.62c-1.13-13.69,1.54-29.51,0-42.88-.07-.65-5.01-6.41-5.85-11.7-1.8-11.39,2.3-22.4-5.85-32.16l-1.95-77.97c1.51-1.08,2.99-2.18,4.47-3.3s2.94-2.26,4.39-3.41c2.91-2.3,5.79-4.63,8.68-6.93-.21,27.26-.24,54.56-.21,81.86.03,27.3.14,54.6.21,81.87Z" style="fill: url(#uuid-e11fd8b4-d1d2-4889-803b-93df4621f8c9);"/>
        <path d="M213.4,530.37c.04,6.17-3.2,48.91-1.95,50.68.33-5.57,5.72-15.05,5.85-20.47.4.3-2.8,5.02-2.92,4.39-1.11-5.66-7.62-7.79-11.7-12.67l-2.92-99.41c3.01-2.16,8.31-6.96,11.21-9.26-.21,27.26,2.28,59.47,2.44,86.74Z" style="fill: url(#uuid-a720f517-33b0-4e68-809c-751afe0c0097);"/>
        <path d="M204.57,498.69c.11,12.33-2.5,83.19,0,86.74,1.79,2.54,9.91-.59,11.7,1.95.88,1.26-.54,16.44,0,20.47l-17.54,6.82-3.9-120.85,4.87-4.87,4.87,9.75Z" style="fill: url(#uuid-8c4f9956-eadf-4d3f-a09d-76e6eb296a7d);"/>
      </g>
      <path d="M598.31,652.68c-.27,2.57.9,5.87-.97,7.8-1.22.08-2.29-7.84.97-7.8Z" style="fill: #da7d43;"/>
    </g>
  </g>
  <g>
    <path d="M572.97,196.57c8.44,8.88,52.52,57.13,54.58,64.32l-109.15-2.92v-115.98c18.46,17.7,36.97,36.06,54.58,54.58Z" style="fill: #52c0cd;"/>
    <g>
      <path d="M440.42,138.09c25.65.42,52.33,2.12,77.97,3.9v115.98l109.15,2.92c.69,68.14.51,136.52,0,204.66-.09,12.29.18,24.59,0,37.03-.46,32.03,5.57,105.76-5.85,130.59-17.73,20.77-48.53,13-74.07,13.64-5.17.13-10.42-.09-15.59,0-43.42.74-87.16.27-130.59,0-11.86-.07-25.18,2.07-37.03,1.95-30.41-.32-86.01,2.09-113.05-1.95-13.89-2.08-22.28-9.88-29.24-21.44-3.45-25.73-1.88-52.07-1.95-77.97-.14-54.53-.41-109.2,0-163.73.1-12.94-.17-26.14,0-38.98.4-30.05-1.22-173.02,7.8-188.1.77-1.29,9.45-9.98,10.72-10.72,13.77-8.09,140.95-8.03,166.65-7.8,11.57.11,23.7-.19,35.09,0Z" style="fill: #fefefe;"/>
      <rect x="309.19" y="400.45" width="262.79" height="50.67" rx="12" ry="12" style="fill: #52c0cd;"/>
      <rect x="309.19" y="320.69" width="262.79" height="50.67" rx="12" ry="12" style="fill: #52c0cd;"/>
      <rect x="309.19" y="240.94" width="160.38" height="50.67" rx="12" ry="12" style="fill: #52c0cd;"/>
      <rect x="309.19" y="485.18" width="262.79" height="50.67" rx="12" ry="12" style="fill: #52c0cd;"/>
    </g>
  </g>
</svg>